<svg width="26" height="26" viewBox="0 0 26 26" fill="none" xmlns="http://www.w3.org/2000/svg">
<path d="M13 25.25C19.7655 25.25 25.25 19.7655 25.25 13C25.25 6.2345 19.7655 0.75 13 0.75C6.2345 0.75 0.75 6.2345 0.75 13C0.75 19.7655 6.2345 25.25 13 25.25ZM12.125 8.625C12.125 8.39294 12.2172 8.17038 12.3813 8.00628C12.5454 7.84219 12.7679 7.75 13 7.75C13.2321 7.75 13.4546 7.84219 13.6187 8.00628C13.7828 8.17038 13.875 8.39294 13.875 8.625V12.125H17.375C17.6071 12.125 17.8296 12.2172 17.9937 12.3813C18.1578 12.5454 18.25 12.7679 18.25 13C18.25 13.2321 18.1578 13.4546 17.9937 13.6187C17.8296 13.7828 17.6071 13.875 17.375 13.875H13.875V17.375C13.875 17.6071 13.7828 17.8296 13.6187 17.9937C13.4546 18.1578 13.2321 18.25 13 18.25C12.7679 18.25 12.5454 18.1578 12.3813 17.9937C12.2172 17.8296 12.125 17.6071 12.125 17.375V13.875H8.625C8.39294 13.875 8.17038 13.7828 8.00628 13.6187C7.84219 13.4546 7.75 13.2321 7.75 13C7.75 12.7679 7.84219 12.5454 8.00628 12.3813C8.17038 12.2172 8.39294 12.125 8.625 12.125H12.125V8.625Z" fill="#FF4F5A"/>
</svg>
