<svg width="27" height="27" viewBox="0 0 27 27" fill="none" xmlns="http://www.w3.org/2000/svg">
<path d="M26.1875 6.25001C26.1875 5.2886 25.8056 4.36657 25.1258 3.68675C24.4459 3.00693 23.5239 2.62501 22.5625 2.62501H21.6562V1.74425C21.6562 1.25657 21.2813 0.837997 20.7936 0.813642C20.6711 0.807738 20.5486 0.826773 20.4337 0.869595C20.3187 0.912416 20.2136 0.978131 20.1248 1.06276C20.036 1.14739 19.9653 1.24916 19.917 1.36193C19.8687 1.47469 19.8438 1.59608 19.8438 1.71876V2.62501H7.15625V1.74425C7.15625 1.25657 6.78129 0.837997 6.29361 0.813642C6.17108 0.807738 6.04862 0.826773 5.93366 0.869595C5.8187 0.912416 5.71364 0.978131 5.62482 1.06276C5.53601 1.14739 5.46531 1.24916 5.41699 1.36193C5.36868 1.47469 5.34376 1.59608 5.34375 1.71876V2.62501H4.4375C3.47609 2.62501 2.55406 3.00693 1.87424 3.68675C1.19442 4.36657 0.8125 5.2886 0.8125 6.25001V6.9297C0.8125 6.98978 0.83637 7.04741 0.878859 7.0899C0.921347 7.13239 0.978974 7.15626 1.03906 7.15626H25.9609C26.021 7.15626 26.0787 7.13239 26.1211 7.0899C26.1636 7.04741 26.1875 6.98978 26.1875 6.9297V6.25001ZM0.8125 22.5625C0.8125 23.5239 1.19442 24.4459 1.87424 25.1258C2.55406 25.8056 3.47609 26.1875 4.4375 26.1875H22.5625C23.5239 26.1875 24.4459 25.8056 25.1258 25.1258C25.8056 24.4459 26.1875 23.5239 26.1875 22.5625V9.19532C26.1875 9.13523 26.1636 9.07761 26.1211 9.03512C26.0787 8.99263 26.021 8.96876 25.9609 8.96876H1.03906C0.978974 8.96876 0.921347 8.99263 0.878859 9.03512C0.83637 9.07761 0.8125 9.13523 0.8125 9.19532V22.5625Z" fill="#FF4F5A"/>
</svg>
